<?xml version="1.0" encoding="UTF-8" standalone="no"?>
<!-- Created with Inkscape (http://www.inkscape.org/) -->

<svg
   width="48"
   height="48"
   viewBox="0 0 12.7 12.7"
   version="1.1"
   id="svg1"
   inkscape:version="1.3.2 (091e20ef0f, 2023-11-25, custom)"
   sodipodi:docname="logo.svg"
   xmlns:inkscape="http://www.inkscape.org/namespaces/inkscape"
   xmlns:sodipodi="http://sodipodi.sourceforge.net/DTD/sodipodi-0.dtd"
   xmlns="http://www.w3.org/2000/svg"
   xmlns:svg="http://www.w3.org/2000/svg">
  <sodipodi:namedview
     id="namedview1"
     pagecolor="#ffffff"
     bordercolor="#999999"
     borderopacity="1"
     inkscape:showpageshadow="0"
     inkscape:pageopacity="0"
     inkscape:pagecheckerboard="0"
     inkscape:deskcolor="#d1d1d1"
     inkscape:document-units="mm"
     inkscape:zoom="7.0152381"
     inkscape:cx="26.299891"
     inkscape:cy="17.960901"
     inkscape:window-width="2550"
     inkscape:window-height="1382"
     inkscape:window-x="0"
     inkscape:window-y="0"
     inkscape:window-maximized="1"
     inkscape:current-layer="layer1" />
  <defs
     id="defs1">
    <inkscape:perspective
       sodipodi:type="inkscape:persp3d"
       inkscape:vp_x="0 : -135.8 : 1"
       inkscape:vp_y="0 : 999.99998 : 0"
       inkscape:vp_z="210 : -135.8 : 1"
       inkscape:persp3d-origin="105 : -185.3 : 1"
       id="perspective2" />
  </defs>
  <g
     inkscape:label="Layer 1"
     inkscape:groupmode="layer"
     id="layer1">
    <path
       id="rect1-5"
       style="fill:#0080ff;stroke:none;stroke-width:2.2007;stroke-dasharray:none"
       d="m 3.0319728,1.5228452 h 6.6360546 c 0.080759,0 0.1457786,0.1076505 0.1457786,0.2413688 v 9.171572 c 0,0.133718 -0.065016,0.241369 -0.1457786,0.241369 H 3.0319728 c -0.080761,0 -0.1457788,-0.107651 -0.1457788,-0.241369 V 1.764214 c 0,-0.1337183 0.065017,-0.2413688 0.1457788,-0.2413688 z" />
    <g
       id="g1"
       transform="translate(0,0.0026504)">
      <path
         id="rect1"
         style="fill:#da3625;stroke-width:0.146336"
         d="M 1.3899387,5.9765163 H 11.31006 c 0.130549,0 0.235649,0.048457 0.235649,0.108648 v 3.815289 c 0,0.06019 -0.105102,0.1086487 -0.235649,0.1086487 H 1.3899387 c -0.1305491,0 -0.2356479,-0.04846 -0.2356479,-0.1086487 v -3.815289 c 0,-0.060191 0.1050988,-0.108648 0.2356479,-0.108648 z" />
      <path
         id="rect1-2"
         style="fill:#ffd11e;stroke-width:0.065115"
         d="m 10.349375,9.4217046 -7.9834138,0.00753 C 2.2330558,9.4293761 2.1258285,9.4146818 2.1255427,9.3964622 L 2.1112372,8.4821533 c -2.866e-4,-0.018246 0.1064791,-0.033123 0.2393854,-0.033244 l 7.9834124,-0.00753 c 0.132905,-1.256e-4 0.240132,0.014557 0.240418,0.032794 l 0.01431,0.9143089 c 2.85e-4,0.018246 -0.106481,0.033123 -0.239386,0.033244 z" />
      <path
         style="font-style:italic;font-weight:900;font-size:63.6006px;line-height:1.25;font-family:Alegreya;-inkscape-font-specification:'Alegreya Heavy Italic';stroke:#ffffff;stroke-width:0.25;stroke-dasharray:none"
         d="m 2.3390342,6.0078142 -0.012824,0.2050315 q 0,0.1537742 0.076884,0.1986254 0.076884,0.044848 0.3203629,0.05766 l 0.025624,0.05126 -0.1281459,0.5382087 q -0.1281447,-0.00642 -0.4485075,-0.019224 -0.3139556,-0.00642 -0.5894653,-0.00642 -0.2947339,0 -0.64713291,0.019224 -0.3459917,0.025624 -0.4549147,0.038448 l 0.128146,-0.5894706 Q 0.83972069,6.4627088 0.94223639,6.3473837 1.0447445,6.2320535 1.0767882,5.9565412 L 1.3523055,3.7332223 q 0.00642,-0.044852 0.00642,-0.1153314 0,-0.0897 -0.032036,-0.1281441 -0.025624,-0.038442 -0.096109,-0.038442 -0.076884,0 -0.1409591,0.0064 -0.064072,0.0064 -0.083284,0.0064 l -0.05126,-0.076888 0.128146,-0.5061716 0.8906064,0.0064 q 0.192217,0 0.5894666,-0.012821 0.3972496,-0.019222 0.5253942,-0.025629 0.8073124,0 1.2365995,0.2691049 0.4292857,0.2626967 0.4292857,0.7816838 0,0.8521644 -0.8970161,1.3647446 l 0.2883266,0.666353 Q 4.2676235,6.199986 4.4021816,6.3473522 4.5431407,6.4947185 4.6712854,6.4947185 l 0.05766,0.1025082 -0.1153327,0.4677291 -0.9931221,0.070485 q -0.269105,0 -0.4164713,-0.1281459 Q 3.0630602,6.8727704 2.9797662,6.5524088 L 2.7299018,5.5720924 H 2.3903173 Z m 0.62791,-1.1789338 q 0.4485074,-0.172996 0.4485074,-0.7304265 0,-0.2306607 -0.1537748,-0.339584 -0.1473663,-0.108923 -0.4677279,-0.108923 -0.064072,0 -0.089709,0.025629 -0.019224,0.025629 -0.032036,0.1153301 -0.1217324,0.6535386 -0.1665881,0.973902 z m 3.5944593,2.274573 q -0.8009064,0 -1.2365994,-0.4485075 -0.435693,-0.4485072 -0.435693,-1.2814498 0,-1.2558206 0.6022822,-1.9093599 0.6022811,-0.653539 1.7555852,-0.653539 0.2370689,0 0.5510245,0.038442 0.3203615,0.038443 0.5574303,0.076888 0.2434748,0.038442 0.3139544,0.051258 l 0.038448,0.1281455 Q 8.6886117,3.1437737 8.6309517,3.3103629 8.5796917,3.4705437 8.502807,3.75887 8.425923,4.0407883 8.3618479,4.3867807 l -0.9995293,0.057665 q 0.012824,-0.044847 0.038448,-0.1922167 0.032036,-0.1473667 0.032036,-0.2178468 0,-0.3395839 -0.4228798,-0.3395839 -0.3523978,0 -0.4997653,0.3716209 -0.1473664,0.3716195 -0.1473664,1.2494123 0,0.4805444 0.096108,0.6855765 0.1025082,0.1986246 0.3395845,0.1986246 0.1345506,0 0.2434748,-0.03204 0.108933,-0.038443 0.108933,-0.044847 l 0.044848,-0.4036578 q 0.00642,-0.038443 0.00642,-0.1089267 0,-0.08329 -0.038448,-0.1153301 -0.032036,-0.038443 -0.1217324,-0.038443 -0.076884,0 -0.1281459,0.00644 -0.05126,0 -0.070485,0 L 6.7985061,5.373529 6.9458725,4.76484 h 0.9610859 q 0.2178459,0 0.454916,-0.012818 Q 8.5989407,4.739204 8.5989407,4.7328 l 0.019224,0.3716197 Q 8.4772056,5.1877207 8.4067261,5.30305 q -0.064072,0.1089267 -0.096108,0.2819198 -0.044848,0.2178464 -0.089709,0.5446159 -0.038448,0.3267687 -0.038448,0.4164712 0,0.089709 0,0.1601808 0.00642,0.064072 0.00642,0.083284 l -0.089709,0.1025082 q 0,0.00642 -0.2050326,0.064072 -0.1986242,0.05126 -0.5382087,0.096108 -0.3395833,0.05126 -0.794498,0.05126 z m 3.3830272,-0.070485 q -0.403657,0 -0.813721,0.025624 -0.4100642,0.025624 -0.5253943,0.038448 L 8.7334613,6.5075758 Q 8.9705287,6.4691299 9.0666377,6.3537985 9.1691457,6.2320611 9.2011907,5.9437349 l 0.269105,-2.16565 q 0.01282,-0.1153302 0.01282,-0.140959 0,-0.1089229 -0.04485,-0.1473674 -0.04484,-0.038442 -0.14736,-0.038442 l -0.160183,0.0064 -0.04485,-0.089702 0.108933,-0.480543 h 1.0187503 q 0.333179,0 0.743243,-0.012821 0.410062,-0.012821 0.576652,-0.019222 l -0.147368,0.6279099 q -0.326769,0.032036 -0.448505,0.102517 -0.121733,0.064072 -0.147367,0.2306607 -0.09611,0.5446151 -0.217846,1.3263001 -0.115333,0.7752769 -0.115333,0.9482733 0,0.1089267 0.04485,0.1601811 0.04485,0.044847 0.140961,0.044847 0.217846,0 0.339584,-0.08329 0.128143,-0.08329 0.205031,-0.3011419 0.0833,-0.2178465 0.16018,-0.6599462 l 0.832944,-0.08329 0.06407,0.096108 q -0.03204,0.1409593 -0.147368,0.6471324 -0.108933,0.5061735 -0.211437,1.0636027 l -0.108933,0.1025081 q -0.160183,-0.00642 -0.711208,-0.025624 -0.551023,-0.019224 -1.1212663,-0.019224 z"
         id="text1"
         aria-label="RGL" />
    </g>
  </g>
</svg>
