<?xml version="1.0" encoding="UTF-8" standalone="no"?>
<!-- Created with Inkscape (http://www.inkscape.org/) -->

<svg
   width="48"
   height="48"
   viewBox="0 0 12.7 12.7"
   version="1.1"
   id="svg1"
   inkscape:version="1.4 (e7c3feb100, 2024-10-09)"
   sodipodi:docname="logo.svg"
   xmlns:inkscape="http://www.inkscape.org/namespaces/inkscape"
   xmlns:sodipodi="http://sodipodi.sourceforge.net/DTD/sodipodi-0.dtd"
   xmlns="http://www.w3.org/2000/svg"
   xmlns:svg="http://www.w3.org/2000/svg">
  <sodipodi:namedview
     id="namedview1"
     pagecolor="#ffffff"
     bordercolor="#999999"
     borderopacity="1"
     inkscape:showpageshadow="0"
     inkscape:pageopacity="0"
     inkscape:pagecheckerboard="0"
     inkscape:deskcolor="#d1d1d1"
     inkscape:document-units="mm"
     inkscape:zoom="7.0152381"
     inkscape:cx="26.228618"
     inkscape:cy="17.818355"
     inkscape:window-width="1903"
     inkscape:window-height="1023"
     inkscape:window-x="0"
     inkscape:window-y="0"
     inkscape:window-maximized="0"
     inkscape:current-layer="layer1" />
  <defs
     id="defs1">
    <inkscape:perspective
       sodipodi:type="inkscape:persp3d"
       inkscape:vp_x="0 : -135.8 : 1"
       inkscape:vp_y="0 : 999.99998 : 0"
       inkscape:vp_z="210 : -135.8 : 1"
       inkscape:persp3d-origin="105 : -185.3 : 1"
       id="perspective2" />
  </defs>
  <g
     inkscape:label="Layer 1"
     inkscape:groupmode="layer"
     id="layer1">
    <path
       id="rect1-2"
       style="fill:#ffd11e;stroke-width:0.15012"
       d="m 8.6825268,10.747898 -8.05083376,0.03954 C 0.49766527,10.788328 0.38953245,10.710891 0.38924429,10.61486 L 0.37481848,5.7958845 C 0.37452942,5.6997158 0.4821961,5.6213056 0.6162253,5.6206685 L 8.6670579,5.5810027 C 8.8010854,5.580341 8.9092177,5.6577251 8.909506,5.7538475 l 0.01443,4.8189715 c 2.872e-4,0.09618 -0.1073809,0.174559 -0.2414078,0.175191 z" />
    <path
       id="rect1-5"
       style="fill:#0080ff;stroke:none;stroke-width:1.60985;stroke-dasharray:none"
       d="m 5.7837005,3.7320237 h 6.6360545 c 0.08076,0 0.145778,0.057605 0.145778,0.1291609 V 8.76903 c 0,0.071546 -0.06502,0.1291545 -0.145778,0.1291545 H 5.7837005 c -0.080761,0 -0.1457788,-0.057609 -0.1457788,-0.1291545 V 3.8611837 c 0,-0.071554 0.065017,-0.1291594 0.1457788,-0.12916 z" />
    <path
       id="rect1"
       style="fill:#da3625;stroke-width:0.134807"
       d="M 0.29570554,2.4178711 H 7.083396 c 0.089326,0 0.1612392,0.060099 0.1612392,0.134752 v 4.7319624 c 0,0.074651 -0.071915,0.134753 -0.1612392,0.134753 H 0.29570554 c -0.0893262,0 -0.16123845,-0.060104 -0.16123845,-0.134753 V 2.5526232 c 0,-0.074653 0.0719122,-0.134752 0.16123845,-0.1347521 z" />
    <path
       style="font-style:italic;font-weight:900;font-size:63.6006px;line-height:1.25;font-family:Alegreya;-inkscape-font-specification:'Alegreya Heavy Italic';stroke:#ffffff;stroke-width:0.25;stroke-dasharray:none"
       d="m 2.4506757,7.4279472 -0.012824,0.2050315 q 0,0.1537742 0.076884,0.1986254 0.076884,0.044848 0.3203629,0.05766 l 0.025624,0.05126 -0.1281459,0.5382087 q -0.1281447,-0.00642 -0.4485075,-0.019224 -0.3139556,-0.00642 -0.5894653,-0.00642 -0.2947339,0 -0.6471329,0.019224 -0.34599171,0.025624 -0.45491471,0.038448 l 0.128146,-0.5894706 Q 0.95136219,7.8828418 1.0538779,7.7675167 1.156386,7.6521865 1.1884297,7.3766742 L 1.463947,5.1533553 q 0.00642,-0.044852 0.00642,-0.1153314 0,-0.0897 -0.032036,-0.1281441 -0.025624,-0.038442 -0.096109,-0.038442 -0.076884,0 -0.1409591,0.0064 -0.064072,0.0064 -0.083284,0.0064 l -0.05126,-0.076888 0.128146,-0.5061716 0.8906064,0.0064 q 0.192217,0 0.5894666,-0.012821 0.3972496,-0.019222 0.5253942,-0.025629 0.8073124,0 1.2365995,0.2691049 0.4292857,0.2626967 0.4292857,0.7816838 0,0.8521644 -0.8970161,1.3647446 l 0.2883266,0.666353 Q 4.379265,7.620119 4.5138231,7.7674852 4.6547822,7.9148515 4.7829269,7.9148515 l 0.05766,0.1025082 -0.1153327,0.4677291 -0.9931221,0.070485 q -0.269105,0 -0.4164713,-0.1281459 Q 3.1747017,8.2929034 3.0914077,7.9725418 L 2.8415433,6.9922254 H 2.5019588 Z m 0.62791,-1.1789338 q 0.4485074,-0.172996 0.4485074,-0.7304265 0,-0.2306607 -0.1537748,-0.339584 -0.1473663,-0.108923 -0.4677279,-0.108923 -0.064072,0 -0.089709,0.025629 Q 2.7966574,5.1213379 2.7838454,5.211039 2.662113,5.8645776 2.6172573,6.184941 Z m 3.5944593,2.274573 q -0.8009064,0 -1.2365994,-0.4485075 -0.435693,-0.4485072 -0.435693,-1.2814498 0,-1.2558206 0.6022822,-1.9093599 0.6022811,-0.653539 1.7555852,-0.653539 0.2370689,0 0.5510245,0.038442 0.3203615,0.038443 0.5574303,0.076888 0.2434748,0.038442 0.3139544,0.051258 l 0.038448,0.1281455 Q 8.8002532,4.5639067 8.7425932,4.7304959 8.6913332,4.8906767 8.6144485,5.179003 8.5375645,5.4609213 8.4734894,5.8069137 l -0.9995293,0.057665 q 0.012824,-0.044847 0.038448,-0.1922167 0.032036,-0.1473667 0.032036,-0.2178468 0,-0.3395839 -0.4228798,-0.3395839 -0.3523978,0 -0.4997653,0.3716209 -0.1473664,0.3716195 -0.1473664,1.2494123 0,0.4805444 0.096108,0.6855765 0.1025082,0.1986246 0.3395845,0.1986246 0.1345506,0 0.2434748,-0.03204 0.108933,-0.038443 0.108933,-0.044847 l 0.044848,-0.4036578 q 0.00642,-0.038443 0.00642,-0.1089267 0,-0.08329 -0.038448,-0.1153301 -0.032036,-0.038443 -0.1217324,-0.038443 -0.076884,0 -0.1281459,0.00644 -0.05126,0 -0.070485,0 L 6.9101476,6.793662 7.057514,6.184973 h 0.9610859 q 0.2178459,0 0.454916,-0.012818 0.2370663,-0.012818 0.2370663,-0.019222 l 0.019224,0.3716197 q -0.1409591,0.083301 -0.2114386,0.1986303 -0.064072,0.1089267 -0.096108,0.2819198 -0.044848,0.2178464 -0.089709,0.5446159 -0.038448,0.3267687 -0.038448,0.4164712 0,0.089709 0,0.1601808 0.00642,0.064072 0.00642,0.083284 l -0.089709,0.1025082 q 0,0.00642 -0.2050326,0.064072 -0.1986242,0.05126 -0.5382087,0.096108 -0.3395833,0.05126 -0.794498,0.05126 z m 3.383027,-0.070485 q -0.4036568,0 -0.8137208,0.025624 -0.4100642,0.025624 -0.5253943,0.038448 L 8.8451028,7.9277088 Q 9.0821702,7.8892629 9.1782792,7.7739315 9.2807872,7.6521941 9.3128322,7.3638679 l 0.269105,-2.16565 q 0.01282,-0.1153302 0.01282,-0.140959 0,-0.1089229 -0.04485,-0.1473674 -0.04484,-0.038442 -0.14736,-0.038442 l -0.160183,0.0064 -0.04485,-0.089702 0.108933,-0.480543 h 1.0187508 q 0.333179,0 0.743243,-0.012821 0.410062,-0.012821 0.576652,-0.019222 l -0.147368,0.6279099 q -0.326769,0.032036 -0.448505,0.102517 -0.121733,0.064072 -0.147367,0.2306607 -0.09611,0.5446151 -0.217846,1.3263001 -0.115333,0.7752769 -0.115333,0.9482733 0,0.1089267 0.04485,0.1601811 0.04485,0.044847 0.140961,0.044847 0.217846,0 0.339584,-0.08329 0.128143,-0.08329 0.205031,-0.3011419 0.0833,-0.2178465 0.16018,-0.6599462 l 0.832944,-0.08329 0.06407,0.096108 q -0.03204,0.1409593 -0.147368,0.6471324 -0.108933,0.5061735 -0.211437,1.0636027 l -0.108933,0.1025081 q -0.160183,-0.00642 -0.711208,-0.025624 -0.551023,-0.019224 -1.121267,-0.019224 z"
       id="text1"
       aria-label="RGL" />
  </g>
</svg>
